<svg xmlns="http://www.w3.org/2000/svg" width="152.354" height="152.354" viewBox="0 0 152.354 152.354">
  <path id="logo-partiaf-standar" d="M76.177,0h0a76.177,76.177,0,0,1,0,152.354h0A76.177,76.177,0,0,1,76.177,0h0ZM50,78.936H63.206A10.151,10.151,0,0,1,73.327,89.057v14.465a4.938,4.938,0,0,1-4.924,4.924H51.915a7.956,7.956,0,0,1-7.933-7.933V84.954A6.036,6.036,0,0,1,50,78.936ZM99.615,37.794h-12.6a8.014,8.014,0,0,1-7.99-7.99V21.01A5.63,5.63,0,0,1,84.642,15.4h6.351A13.253,13.253,0,0,1,104.208,28.61V33.2a4.606,4.606,0,0,1-4.593,4.593Zm17.374,2.964a8.748,8.748,0,0,1-6.008-8.281c0-2.824-.169-6.49,4.252-4.7,4.606,1.863,10.8,8.3,9.548,11.144C123.544,41.729,119.48,41.577,116.989,40.758Zm13.562,32.66h-8a7.817,7.817,0,0,1-7.794-7.794V53.482a5.708,5.708,0,0,1,5.691-5.691h2.655a14.292,14.292,0,0,1,14.251,14.251v4.572a6.825,6.825,0,0,1-6.805,6.805Zm-28.2,0H89.149A10.151,10.151,0,0,1,79.027,63.3V48.832a4.938,4.938,0,0,1,4.924-4.924h16.488a7.956,7.956,0,0,1,7.933,7.933V67.4a6.036,6.036,0,0,1-6.018,6.018Zm-2.74,41.142h-12.6a8.014,8.014,0,0,0-7.99,7.99v8.793a5.63,5.63,0,0,0,5.614,5.614h6.351a13.253,13.253,0,0,0,13.214-13.214v-4.59a4.606,4.606,0,0,0-4.593-4.593Zm17.374-2.964a8.748,8.748,0,0,0-6.008,8.281c0,2.824-.169,6.49,4.252,4.7,4.606-1.863,10.8-8.3,9.548-11.144C123.544,110.626,119.48,110.777,116.989,111.6Zm13.562-32.66h-8a7.817,7.817,0,0,0-7.794,7.794V98.873a5.708,5.708,0,0,0,5.691,5.691h2.655a14.292,14.292,0,0,0,14.251-14.251V85.742a6.825,6.825,0,0,0-6.805-6.805Zm-28.2,0H89.149A10.151,10.151,0,0,0,79.027,89.057v14.465a4.938,4.938,0,0,0,4.924,4.924h16.488a7.956,7.956,0,0,0,7.933-7.933V84.954a6.036,6.036,0,0,0-6.018-6.018ZM52.74,37.794h12.6a8.014,8.014,0,0,0,7.99-7.99V21.01A5.63,5.63,0,0,0,67.712,15.4H61.361A13.253,13.253,0,0,0,48.146,28.61V33.2a4.606,4.606,0,0,0,4.593,4.593ZM35.365,40.758a8.748,8.748,0,0,0,6.008-8.281c0-2.824.169-6.49-4.252-4.7-4.606,1.863-10.8,8.3-9.548,11.144C28.81,41.729,32.875,41.577,35.365,40.758ZM21.8,73.418h8A7.817,7.817,0,0,0,37.6,65.624V53.482A5.708,5.708,0,0,0,31.9,47.79H29.248A14.292,14.292,0,0,0,15,62.041v4.572A6.825,6.825,0,0,0,21.8,73.418Zm28.2,0H63.206A10.151,10.151,0,0,0,73.327,63.3V48.832A4.938,4.938,0,0,0,68.4,43.908H51.915a7.956,7.956,0,0,0-7.933,7.933V67.4A6.036,6.036,0,0,0,50,73.418Zm2.74,41.142h12.6a8.014,8.014,0,0,1,7.99,7.99v8.793a5.63,5.63,0,0,1-5.614,5.614H61.361a13.253,13.253,0,0,1-13.214-13.214v-4.59a4.606,4.606,0,0,1,4.593-4.593ZM35.365,111.6a8.748,8.748,0,0,1,6.008,8.281c0,2.824.169,6.49-4.252,4.7-4.606-1.863-10.8-8.3-9.548-11.144C28.81,110.626,32.875,110.777,35.365,111.6ZM21.8,78.936h8A7.817,7.817,0,0,1,37.6,86.73V98.873a5.708,5.708,0,0,1-5.692,5.691H29.248A14.292,14.292,0,0,1,15,90.314V85.742A6.825,6.825,0,0,1,21.8,78.937ZM76.177,7.72a68.455,68.455,0,1,0,48.407,20.05A68.246,68.246,0,0,0,76.177,7.72Z" transform="translate(0)" fill="#ebc74e"/>
</svg>