<svg xmlns="http://www.w3.org/2000/svg" width="23.233" height="23.233" viewBox="0 0 23.233 23.233">
  <g id="scan-icon" transform="translate(-364 -252)">
    <g id="scan" transform="translate(364 252)">
      <path id="Vector" d="M-.024,7.478A.726.726,0,0,1-.75,6.752V4.332A5.088,5.088,0,0,1,4.332-.75h2.42a.726.726,0,0,1,.726.726A.726.726,0,0,1,6.752.7H4.332A3.634,3.634,0,0,0,.7,4.332v2.42A.726.726,0,0,1-.024,7.478Z" transform="translate(1.96 1.96)" fill="#333"/>
      <path id="Vector-2" data-name="Vector" d="M6.752,7.478a.726.726,0,0,1-.726-.726V4.332A3.634,3.634,0,0,0,2.4.7H-.024A.726.726,0,0,1-.75-.024.726.726,0,0,1-.024-.75H2.4A5.088,5.088,0,0,1,7.478,4.332v2.42A.726.726,0,0,1,6.752,7.478Z" transform="translate(14.545 1.96)" fill="#333"/>
      <path id="Vector-3" data-name="Vector" d="M1.428,6.51H-.024A.726.726,0,0,1-.75,5.784a.726.726,0,0,1,.726-.726H1.428a3.634,3.634,0,0,0,3.63-3.63V-.024A.726.726,0,0,1,5.784-.75a.726.726,0,0,1,.726.726V1.428A5.088,5.088,0,0,1,1.428,6.51Z" transform="translate(15.513 15.513)" fill="#333"/>
      <path id="Vector-4" data-name="Vector" d="M6.752,7.478H4.332A5.088,5.088,0,0,1-.75,2.4V-.024A.726.726,0,0,1-.024-.75.726.726,0,0,1,.7-.024V2.4a3.634,3.634,0,0,0,3.63,3.63h2.42a.726.726,0,1,1,0,1.452Z" transform="translate(1.96 14.545)" fill="#333"/>
      <path id="Vector-5" data-name="Vector" d="M2.88-.75H6.752a3.274,3.274,0,0,1,3.63,3.63V7.72a3.274,3.274,0,0,1-3.63,3.63H2.88A3.274,3.274,0,0,1-.75,7.72V2.88A3.274,3.274,0,0,1,2.88-.75ZM6.752,9.9C8.279,9.9,8.93,9.247,8.93,7.72V2.88C8.93,1.353,8.279.7,6.752.7H2.88C1.353.7.7,1.353.7,2.88V7.72C.7,9.247,1.353,9.9,2.88,9.9Z" transform="translate(6.8 6.316)" fill="#333"/>
      <path id="Vector-6" data-name="Vector" d="M13.529.7H-.024A.726.726,0,0,1-.75-.024.726.726,0,0,1-.024-.75H13.529a.726.726,0,0,1,.726.726A.726.726,0,0,1,13.529.7Z" transform="translate(4.864 11.641)" fill="#333"/>
      <path id="Vector-7" data-name="Vector" d="M0,0H23.233V23.233H0Z" transform="translate(23.233 23.233) rotate(180)" fill="none" opacity="0"/>
    </g>
  </g>
</svg>
